<svg width="440" height="280" viewBox="0 0 440 280" xmlns="http://www.w3.org/2000/svg">
  <defs>
    <linearGradient id="bg" x1="0" y1="0" x2="1" y2="1">
      <stop offset="0%" stop-color="#2A0808"/>
      <stop offset="55%" stop-color="#140404"/>
      <stop offset="100%" stop-color="#0A0A0A"/>
    </linearGradient>
    <radialGradient id="glow" cx="78%" cy="28%" r="62%">
      <stop offset="0%" stop-color="#FF2323" stop-opacity="0.55"/>
      <stop offset="60%" stop-color="#FF2323" stop-opacity="0.10"/>
      <stop offset="100%" stop-color="#FF2323" stop-opacity="0"/>
    </radialGradient>
  </defs>

  <rect width="440" height="280" fill="url(#bg)"/>
  <rect width="440" height="280" fill="url(#glow)"/>

  <text x="28" y="120" font-family="Goldman, 'Arial Black', sans-serif" font-size="42" fill="#F5F5F5" letter-spacing="-1">YouTube</text>
  <text x="28" y="166" font-family="Goldman, 'Arial Black', sans-serif" font-size="42" fill="#FF2323" letter-spacing="-1">Summarizer</text>

  <g transform="translate(216, 60)" fill="#FFFFFF">
    <path d="M12 0 L14.8 9.2 L24 12 L14.8 14.8 L12 24 L9.2 14.8 L0 12 L9.2 9.2 Z"/>
    <path d="M30 16 L31.2 19.8 L35 21 L31.2 22.2 L30 26 L28.8 22.2 L25 21 L28.8 19.8 Z" opacity="0.85"/>
    <path d="M4 28 L4.9 30.7 L7.6 31.6 L4.9 32.5 L4 35.2 L3.1 32.5 L0.4 31.6 L3.1 30.7 Z" opacity="0.7"/>
  </g>

  <g transform="translate(28, 200)">
    <rect width="182" height="34" rx="17" fill="#FF2323" fill-opacity="0.12" stroke="#FF2323" stroke-opacity="0.55" stroke-width="1"/>
    <g transform="translate(12, 10)" fill="#FF5555">
      <path d="M7 0 L8.4 5.6 L14 7 L8.4 8.4 L7 14 L5.6 8.4 L0 7 L5.6 5.6 Z"/>
    </g>
    <text x="34" y="22" font-family="Inter, 'Helvetica Neue', sans-serif" font-weight="600" font-size="13" fill="#FF8585" letter-spacing="0.3">AI-powered summaries</text>
  </g>

  <g transform="translate(296, 92)">
    <rect x="4" y="8" width="124" height="88" rx="20" fill="#000000" fill-opacity="0.35"/>
    <rect x="0" y="0" width="124" height="88" rx="20" fill="#FF2323"/>
    <path d="M48 22 L88 44 L48 66 Z" fill="#F5F5F5"/>
  </g>
</svg>
